<svg id="visual" viewBox="0 0 900 600" width="900" height="600" xmlns="http://www.w3.org/2000/svg" xmlns:xlink="http://www.w3.org/1999/xlink" version="1.1"><rect x="0" y="0" width="900" height="600" fill="#191919"></rect><defs><linearGradient id="grad1_0" x1="33.3%" y1="0%" x2="100%" y2="100%"><stop offset="20%" stop-color="#ff7e00" stop-opacity="1"></stop><stop offset="80%" stop-color="#ff7e00" stop-opacity="1"></stop></linearGradient></defs><defs><linearGradient id="grad1_1" x1="33.3%" y1="0%" x2="100%" y2="100%"><stop offset="20%" stop-color="#ff7e00" stop-opacity="1"></stop><stop offset="80%" stop-color="#ad5a19" stop-opacity="1"></stop></linearGradient></defs><defs><linearGradient id="grad1_2" x1="33.3%" y1="0%" x2="100%" y2="100%"><stop offset="20%" stop-color="#60391c" stop-opacity="1"></stop><stop offset="80%" stop-color="#ad5a19" stop-opacity="1"></stop></linearGradient></defs><defs><linearGradient id="grad1_3" x1="33.3%" y1="0%" x2="100%" y2="100%"><stop offset="20%" stop-color="#60391c" stop-opacity="1"></stop><stop offset="80%" stop-color="#191919" stop-opacity="1"></stop></linearGradient></defs><defs><linearGradient id="grad2_0" x1="0%" y1="0%" x2="66.7%" y2="100%"><stop offset="20%" stop-color="#ff7e00" stop-opacity="1"></stop><stop offset="80%" stop-color="#ff7e00" stop-opacity="1"></stop></linearGradient></defs><defs><linearGradient id="grad2_1" x1="0%" y1="0%" x2="66.7%" y2="100%"><stop offset="20%" stop-color="#ad5a19" stop-opacity="1"></stop><stop offset="80%" stop-color="#ff7e00" stop-opacity="1"></stop></linearGradient></defs><defs><linearGradient id="grad2_2" x1="0%" y1="0%" x2="66.7%" y2="100%"><stop offset="20%" stop-color="#ad5a19" stop-opacity="1"></stop><stop offset="80%" stop-color="#60391c" stop-opacity="1"></stop></linearGradient></defs><defs><linearGradient id="grad2_3" x1="0%" y1="0%" x2="66.7%" y2="100%"><stop offset="20%" stop-color="#191919" stop-opacity="1"></stop><stop offset="80%" stop-color="#60391c" stop-opacity="1"></stop></linearGradient></defs><g transform="translate(900, 0)"><path d="M0 324.5C-33.7 293.3 -67.4 262 -101 243.9C-134.6 225.8 -168.2 220.8 -204.4 204.4C-240.5 187.9 -279.3 160.1 -299.8 124.2C-320.3 88.2 -322.4 44.1 -324.5 0L0 0Z" fill="#3c291b"></path><path d="M0 243.4C-25.3 219.9 -50.6 196.5 -75.8 182.9C-101 169.3 -126.1 165.6 -153.3 153.3C-180.4 141 -209.5 120.1 -224.8 93.1C-240.2 66.2 -241.8 33.1 -243.4 0L0 0Z" fill="#86491c"></path><path d="M0 162.2C-16.9 146.6 -33.7 131 -50.5 122C-67.3 112.9 -84.1 110.4 -102.2 102.2C-120.3 94 -139.7 80.1 -149.9 62.1C-160.1 44.1 -161.2 22.1 -162.2 0L0 0Z" fill="#d56c12"></path><path d="M0 81.1C-8.4 73.3 -16.9 65.5 -25.3 61C-33.7 56.4 -42 55.2 -51.1 51.1C-60.1 47 -69.8 40 -74.9 31C-80.1 22.1 -80.6 11 -81.1 0L0 0Z" fill="#ff7e00"></path></g><g transform="translate(0, 600)"><path d="M0 -324.5C32 -291.5 64 -258.6 101 -243.9C138.1 -229.2 180.2 -232.8 216.4 -216.4C252.5 -200 282.8 -163.6 299.8 -124.2C316.8 -84.8 320.7 -42.4 324.5 0L0 0Z" fill="#3c291b"></path><path d="M0 -243.4C24 -218.7 48 -193.9 75.8 -182.9C103.6 -171.9 135.2 -174.6 162.3 -162.3C189.4 -150 212.1 -122.7 224.8 -93.1C237.6 -63.6 240.5 -31.8 243.4 0L0 0Z" fill="#86491c"></path><path d="M0 -162.2C16 -145.8 32 -129.3 50.5 -122C69 -114.6 90.1 -116.4 108.2 -108.2C126.3 -100 141.4 -81.8 149.9 -62.1C158.4 -42.4 160.3 -21.2 162.2 0L0 0Z" fill="#d56c12"></path><path d="M0 -81.1C8 -72.9 16 -64.6 25.3 -61C34.5 -57.3 45.1 -58.2 54.1 -54.1C63.1 -50 70.7 -40.9 74.9 -31C79.2 -21.2 80.2 -10.6 81.1 0L0 0Z" fill="#ff7e00"></path></g></svg>